<svg width="20" height="16" viewBox="0 0 20 16" fill="none" xmlns="http://www.w3.org/2000/svg">
<path d="M10.0269 8.88073C9.70457 8.88073 9.36437 8.75229 8.98836 8.38532L1.18174 0.348624C1.43241 0.165138 1.96956 0 2.72158 0H17.3142C18.0842 0 18.6213 0.165138 18.872 0.348624L11.0474 8.38532C10.6893 8.73394 10.3671 8.88073 10.0269 8.88073ZM6.46374 7.98165L0.214861 14.3853C0.0716204 14.1468 0 13.6881 0 13.0275V2.97248C0 2.29358 0.0895255 1.83486 0.214861 1.59633L6.46374 7.98165ZM13.5542 7.98165L19.803 1.59633C19.9284 1.83486 20 2.29358 20 2.97248V13.0275C20 13.6881 19.9284 14.1468 19.803 14.3853L13.5542 7.98165ZM10.009 10.4587C10.6893 10.4587 11.2086 10.2018 11.889 9.55963L12.4261 9.04587L18.872 15.6514C18.6213 15.8716 18.0842 16 17.3142 16H2.72158C1.93375 16 1.4145 15.8716 1.16383 15.6514L7.59176 9.04587L8.14682 9.55963C8.82722 10.2018 9.34646 10.4587 10.009 10.4587Z" fill="#EBEBF5" fill-opacity="0.6"/>
</svg>
