<svg width="113" height="27" viewBox="0 0 113 27" fill="none" xmlns="http://www.w3.org/2000/svg">
<g filter="url(#filter0_i_213_4622)">
<path d="M38.125 26V8.54545H42.8636V15.3636H49.1364V8.54545H53.875V26H49.1364V19.1818H42.8636V26H38.125ZM62.5 26.2386C61.0795 26.2386 59.8636 25.9574 58.8523 25.3949C57.8409 24.8267 57.0653 24.0369 56.5256 23.0256C55.9858 22.0085 55.7159 20.8295 55.7159 19.4886C55.7159 18.1477 55.9858 16.9716 56.5256 15.9602C57.0653 14.9432 57.8409 14.1534 58.8523 13.5909C59.8636 13.0227 61.0795 12.7386 62.5 12.7386C63.9205 12.7386 65.1364 13.0227 66.1477 13.5909C67.1591 14.1534 67.9347 14.9432 68.4744 15.9602C69.0142 16.9716 69.2841 18.1477 69.2841 19.4886C69.2841 20.8295 69.0142 22.0085 68.4744 23.0256C67.9347 24.0369 67.1591 24.8267 66.1477 25.3949C65.1364 25.9574 63.9205 26.2386 62.5 26.2386ZM62.5341 22.7614C62.9318 22.7614 63.2756 22.6278 63.5653 22.3608C63.8551 22.0937 64.0795 21.7131 64.2386 21.2188C64.3977 20.7244 64.4773 20.1364 64.4773 19.4545C64.4773 18.767 64.3977 18.179 64.2386 17.6903C64.0795 17.196 63.8551 16.8153 63.5653 16.5483C63.2756 16.2812 62.9318 16.1477 62.5341 16.1477C62.1136 16.1477 61.7528 16.2812 61.4517 16.5483C61.1506 16.8153 60.9205 17.196 60.7614 17.6903C60.6023 18.179 60.5227 18.767 60.5227 19.4545C60.5227 20.1364 60.6023 20.7244 60.7614 21.2188C60.9205 21.7131 61.1506 22.0937 61.4517 22.3608C61.7528 22.6278 62.1136 22.7614 62.5341 22.7614ZM71.1932 26V12.9091H75.6591V15.3977H75.7955C76.0682 14.5795 76.5341 13.9318 77.1932 13.4545C77.8523 12.9773 78.6364 12.7386 79.5455 12.7386C80.4659 12.7386 81.2585 12.983 81.9233 13.4716C82.5881 13.9545 82.9886 14.5966 83.125 15.3977H83.2614C83.483 14.5966 83.9545 13.9545 84.6761 13.4716C85.3977 12.983 86.2443 12.7386 87.2159 12.7386C88.4716 12.7386 89.4886 13.142 90.267 13.9489C91.0511 14.7557 91.4432 15.8295 91.4432 17.1705V26H86.7386V18.3636C86.7386 17.7898 86.5938 17.3409 86.304 17.017C86.0142 16.6875 85.625 16.5227 85.1364 16.5227C84.6534 16.5227 84.2699 16.6875 83.9858 17.017C83.7074 17.3409 83.5682 17.7898 83.5682 18.3636V26H79.0682V18.3636C79.0682 17.7898 78.9233 17.3409 78.6335 17.017C78.3438 16.6875 77.9545 16.5227 77.4659 16.5227C77.142 16.5227 76.8636 16.5966 76.6307 16.7443C76.3977 16.892 76.2159 17.1051 76.0852 17.3835C75.9602 17.6562 75.8977 17.983 75.8977 18.3636V26H71.1932ZM100.036 26.2386C98.6385 26.2386 97.4339 25.9716 96.4226 25.4375C95.4169 24.8977 94.6413 24.125 94.0959 23.1193C93.5561 22.108 93.2862 20.8977 93.2862 19.4886C93.2862 18.1364 93.5589 16.9545 94.1044 15.9432C94.6499 14.9318 95.4197 14.1449 96.4141 13.5824C97.4084 13.0199 98.5817 12.7386 99.9339 12.7386C100.923 12.7386 101.817 12.892 102.619 13.1989C103.42 13.5057 104.104 13.9517 104.673 14.5369C105.241 15.1165 105.678 15.821 105.985 16.6506C106.292 17.4801 106.445 18.4148 106.445 19.4545V20.5455H94.7521V17.9545H102.116C102.11 17.5795 102.013 17.25 101.826 16.9659C101.644 16.6761 101.397 16.4517 101.085 16.2926C100.778 16.1278 100.428 16.0455 100.036 16.0455C99.6555 16.0455 99.3061 16.1278 98.9879 16.2926C98.6697 16.4517 98.4141 16.6733 98.2209 16.9574C98.0334 17.2415 97.9339 17.5739 97.9226 17.9545V20.75C97.9226 21.1705 98.0107 21.5455 98.1868 21.875C98.3629 22.2045 98.6158 22.4631 98.9453 22.6506C99.2749 22.8381 99.6726 22.9318 100.138 22.9318C100.462 22.9318 100.758 22.8864 101.025 22.7955C101.298 22.7045 101.531 22.5739 101.724 22.4034C101.917 22.2273 102.059 22.017 102.15 21.7727H106.445C106.298 22.6818 105.948 23.4716 105.397 24.142C104.846 24.8068 104.116 25.3239 103.207 25.6932C102.303 26.0568 101.246 26.2386 100.036 26.2386Z" fill="white"/>
</g>
<path d="M25.0455 25.6258C25.0455 25.9903 24.9066 26.3398 24.6594 26.5975C24.4122 26.8552 24.0769 27 23.7273 27H5.27273C4.92312 27 4.58784 26.8552 4.34063 26.5975C4.09343 26.3398 3.95455 25.9903 3.95455 25.6258V13.2584H0L13.6129 0.357773C13.8556 0.127571 14.1719 0 14.5 0C14.8281 0 15.1444 0.127571 15.3871 0.357773L29 13.2584H25.0455V25.6258ZM14.5 21.5034L18.9278 16.8876C19.2032 16.6004 19.4217 16.2596 19.5707 15.8845C19.7198 15.5093 19.7965 15.1073 19.7965 14.7013C19.7965 14.2952 19.7198 13.8932 19.5707 13.5181C19.4217 13.1429 19.2032 12.8021 18.9278 12.515C18.6524 12.2279 18.3254 12.0001 17.9656 11.8447C17.6057 11.6894 17.22 11.6094 16.8305 11.6094C16.4411 11.6094 16.0554 11.6894 15.6955 11.8447C15.3357 12.0001 15.0087 12.2279 14.7333 12.515L14.5 12.7582L14.2667 12.515C13.9913 12.2279 13.6643 12.0001 13.3045 11.8447C12.9446 11.6894 12.5589 11.6094 12.1695 11.6094C11.78 11.6094 11.3943 11.6894 11.0344 11.8447C10.6746 12.0001 10.3476 12.2279 10.0722 12.515C9.79682 12.8021 9.57835 13.1429 9.4293 13.5181C9.28024 13.8932 9.20353 14.2952 9.20353 14.7013C9.20353 15.1073 9.28024 15.5093 9.4293 15.8845C9.57835 16.2596 9.79682 16.6004 10.0722 16.8876L14.5 21.5034Z" fill="white"/>
<defs>
<filter id="filter0_i_213_4622" x="38.125" y="8.54547" width="68.3203" height="21.6932" filterUnits="userSpaceOnUse" color-interpolation-filters="sRGB">
<feFlood flood-opacity="0" result="BackgroundImageFix"/>
<feBlend mode="normal" in="SourceGraphic" in2="BackgroundImageFix" result="shape"/>
<feColorMatrix in="SourceAlpha" type="matrix" values="0 0 0 0 0 0 0 0 0 0 0 0 0 0 0 0 0 0 127 0" result="hardAlpha"/>
<feOffset dy="4"/>
<feGaussianBlur stdDeviation="2"/>
<feComposite in2="hardAlpha" operator="arithmetic" k2="-1" k3="1"/>
<feColorMatrix type="matrix" values="0 0 0 0 0 0 0 0 0 0 0 0 0 0 0 0 0 0 0.25 0"/>
<feBlend mode="normal" in2="shape" result="effect1_innerShadow_213_4622"/>
</filter>
</defs>
</svg>
