<svg width="14" height="20" viewBox="0 0 14 20" fill="none" xmlns="http://www.w3.org/2000/svg">
<path d="M2.0438 20H11.9562C13.3255 20 14 19.3337 14 17.8597V10.2978C14 8.96517 13.4482 8.28874 12.3036 8.17769V5.684C12.3036 1.84755 9.71825 0 7 0C4.28175 0 1.69635 1.84755 1.69635 5.684V8.20798C0.633577 8.36951 0 9.03584 0 10.2978V17.8597C0 19.3337 0.674453 20 2.0438 20ZM3.65839 5.50227C3.65839 3.14992 5.1708 1.85765 7 1.85765C8.81898 1.85765 10.3416 3.14992 10.3416 5.50227V8.1575L3.65839 8.16759V5.50227Z" fill="#EBEBF5" fill-opacity="0.6"/>
</svg>
