<svg width="20" height="20" viewBox="0 0 20 20" fill="none" xmlns="http://www.w3.org/2000/svg">
<path d="M9.99517 20C15.4761 20 20 15.4739 20 10C20 4.52611 15.4664 0 9.9855 0C4.51426 0 0 4.52611 0 10C0 15.4739 4.52392 20 9.99517 20ZM9.99517 18.0077C5.55824 18.0077 2.01063 14.4391 2.01063 10C2.01063 5.56093 5.55824 2.00193 9.9855 2.00193C14.4224 2.00193 17.9894 5.56093 17.999 10C18.0087 14.4391 14.4321 18.0077 9.99517 18.0077ZM9.99517 9.67118C11.3485 9.68085 12.4408 8.52031 12.4408 6.99226C12.4408 5.56093 11.3485 4.37137 9.99517 4.37137C8.63219 4.37137 7.53987 5.56093 7.53987 6.99226C7.53987 8.52031 8.63219 9.66151 9.99517 9.67118ZM5.72257 14.8356H14.2581C14.6738 14.8356 14.8864 14.5455 14.8864 14.1586C14.8864 13.1141 13.3398 10.4255 9.99517 10.4255C6.64089 10.4255 5.09425 13.1141 5.09425 14.1586C5.09425 14.5455 5.30691 14.8356 5.72257 14.8356Z" fill="#EBEBF5" fill-opacity="0.6"/>
</svg>
