<svg width="273" height="31" viewBox="0 0 273 31" fill="none" xmlns="http://www.w3.org/2000/svg">
<g filter="url(#filter0_i_87_1541)">
<path d="M0.0113637 7.27273L1.09091 0.90909H26.375L25.2955 7.27273H16.5455L12.7955 30H5.01136L8.76136 7.27273H0.0113637ZM45.2138 0.90909L40.3842 30H32.4865L37.3161 0.90909H45.2138ZM56.9254 0.90909H66.755L70.7891 17.3864H71.13L80.6186 0.90909H90.4482L85.6186 30H77.8913L80.6754 13.1818H80.4482L71.2436 29.7727H66.5845L62.8913 13.0682H62.6641L59.8232 30H52.0959L56.9254 0.90909ZM97.3303 30L102.16 0.90909H123.126L122.046 7.27273H108.978L108.183 12.2727H120.171L119.092 18.6364H107.103L106.308 23.6364H119.319L118.239 30H97.3303ZM149.159 10C149.244 9.0625 149.017 8.3286 148.477 7.7983C147.938 7.25852 147.028 6.98864 145.75 6.98864C144.936 6.98864 144.254 7.08333 143.705 7.27273C143.165 7.46212 142.743 7.72254 142.44 8.05398C142.147 8.38542 141.962 8.76894 141.886 9.20455C141.801 9.54545 141.806 9.85795 141.901 10.142C142.005 10.4167 142.199 10.6676 142.483 10.8949C142.777 11.1222 143.16 11.3258 143.634 11.5057C144.116 11.6856 144.689 11.8466 145.352 11.9886L147.625 12.5C149.178 12.8409 150.48 13.2907 151.531 13.8494C152.592 14.3987 153.425 15.0521 154.031 15.8097C154.637 16.5672 155.035 17.4148 155.224 18.3523C155.423 19.2898 155.428 20.3125 155.239 21.4205C154.917 23.3333 154.173 24.9527 153.009 26.2784C151.844 27.6042 150.324 28.6127 148.449 29.304C146.574 29.9953 144.405 30.3409 141.943 30.3409C139.424 30.3409 137.284 29.9669 135.523 29.2188C133.771 28.4612 132.502 27.3059 131.716 25.7528C130.939 24.1903 130.75 22.197 131.148 19.7727H138.648C138.534 20.6629 138.629 21.411 138.932 22.017C139.235 22.6231 139.723 23.0824 140.395 23.3949C141.067 23.7074 141.905 23.8636 142.909 23.8636C143.761 23.8636 144.491 23.7595 145.097 23.5511C145.703 23.3428 146.181 23.054 146.531 22.6847C146.882 22.3153 147.095 21.8939 147.17 21.4205C147.246 20.9848 147.17 20.5966 146.943 20.2557C146.716 19.9148 146.304 19.607 145.707 19.3324C145.111 19.0578 144.292 18.8068 143.25 18.5795L140.466 17.9545C137.994 17.3864 136.129 16.4489 134.869 15.142C133.61 13.8352 133.165 12.0455 133.534 9.77273C133.837 7.91667 134.599 6.29735 135.821 4.91477C137.052 3.52273 138.615 2.44318 140.509 1.67614C142.412 0.89962 144.519 0.511363 146.83 0.511363C149.178 0.511363 151.143 0.904355 152.724 1.69034C154.315 2.47633 155.456 3.57955 156.148 5C156.848 6.42045 157.038 8.08712 156.716 10H149.159ZM164.791 30L169.621 0.90909H177.518L173.768 23.6364H185.53L184.45 30H164.791ZM208.339 0.90909L203.509 30H195.612L200.441 0.90909H208.339ZM215.221 30L220.05 0.90909H240.505L239.425 7.27273H226.869L226.073 12.2727H237.38L236.3 18.6364H224.994L223.119 30H215.221ZM246.549 30L251.379 0.90909H272.344L271.265 7.27273H258.197L257.401 12.2727H269.39L268.31 18.6364H256.322L255.526 23.6364H268.538L267.458 30H246.549Z" fill="white"/>
</g>
<defs>
<filter id="filter0_i_87_1541" x="0.0117188" y="0.511368" width="272.333" height="33.8295" filterUnits="userSpaceOnUse" color-interpolation-filters="sRGB">
<feFlood flood-opacity="0" result="BackgroundImageFix"/>
<feBlend mode="normal" in="SourceGraphic" in2="BackgroundImageFix" result="shape"/>
<feColorMatrix in="SourceAlpha" type="matrix" values="0 0 0 0 0 0 0 0 0 0 0 0 0 0 0 0 0 0 127 0" result="hardAlpha"/>
<feOffset dy="4"/>
<feGaussianBlur stdDeviation="2"/>
<feComposite in2="hardAlpha" operator="arithmetic" k2="-1" k3="1"/>
<feColorMatrix type="matrix" values="0 0 0 0 0 0 0 0 0 0 0 0 0 0 0 0 0 0 0.25 0"/>
<feBlend mode="normal" in2="shape" result="effect1_innerShadow_87_1541"/>
</filter>
</defs>
</svg>
