<svg width="59" height="55" viewBox="0 0 59 55" fill="none" xmlns="http://www.w3.org/2000/svg">
<path d="M50.6667 52.06C50.6667 52.8004 50.3857 53.5105 49.8856 54.034C49.3855 54.5575 48.7072 54.8517 48 54.8517H10.6667C9.95942 54.8517 9.28115 54.5575 8.78105 54.034C8.28095 53.5105 8 52.8004 8 52.06V26.935H0L27.5387 0.726831C28.0296 0.259165 28.6696 0 29.3333 0C29.9971 0 30.637 0.259165 31.128 0.726831L58.6667 26.935H50.6667V52.06ZM29.3333 43.685L38.2907 34.3078C38.8478 33.7245 39.2898 33.0321 39.5913 32.27C39.8928 31.5079 40.048 30.6911 40.048 29.8662C40.048 29.0414 39.8928 28.2246 39.5913 27.4625C39.2898 26.7004 38.8478 26.008 38.2907 25.4247C37.7335 24.8414 37.0721 24.3788 36.3441 24.0631C35.6162 23.7474 34.8359 23.585 34.048 23.585C33.2601 23.585 32.4798 23.7474 31.7519 24.0631C31.0239 24.3788 30.3625 24.8414 29.8053 25.4247L29.3333 25.9188L28.8613 25.4247C28.3042 24.8414 27.6427 24.3788 26.9148 24.0631C26.1868 23.7474 25.4066 23.585 24.6187 23.585C23.8307 23.585 23.0505 23.7474 22.3226 24.0631C21.5946 24.3788 20.9332 24.8414 20.376 25.4247C19.8188 26.008 19.3769 26.7004 19.0754 27.4625C18.7738 28.2246 18.6186 29.0414 18.6186 29.8662C18.6186 30.6911 18.7738 31.5079 19.0754 32.27C19.3769 33.0321 19.8188 33.7245 20.376 34.3078L29.3333 43.685Z" fill="white"/>
</svg>
