<svg width="40" height="40" viewBox="0 0 40 40" fill="none" xmlns="http://www.w3.org/2000/svg">
<g clip-path="url(#clip0_448_3718)">
<path d="M19.9998 17V21L15.7998 24.1" stroke="white" stroke-width="2" stroke-miterlimit="10" stroke-linecap="round" stroke-linejoin="round"/>
<path d="M20 21L24.2 24.1" stroke="white" stroke-width="2" stroke-miterlimit="10" stroke-linecap="round" stroke-linejoin="round"/>
<path d="M20 17C22.2091 17 24 15.2091 24 13C24 10.7909 22.2091 9 20 9C17.7909 9 16 10.7909 16 13C16 15.2091 17.7909 17 20 17Z" stroke="white" stroke-width="2" stroke-miterlimit="10" stroke-linecap="round" stroke-linejoin="round"/>
<path d="M13 31C15.2091 31 17 29.2091 17 27C17 24.7909 15.2091 23 13 23C10.7909 23 9 24.7909 9 27C9 29.2091 10.7909 31 13 31Z" stroke="white" stroke-width="2" stroke-miterlimit="10" stroke-linecap="round" stroke-linejoin="round"/>
<path d="M27 31C29.2091 31 31 29.2091 31 27C31 24.7909 29.2091 23 27 23C24.7909 23 23 24.7909 23 27C23 29.2091 24.7909 31 27 31Z" stroke="white" stroke-width="2" stroke-miterlimit="10" stroke-linecap="round" stroke-linejoin="round"/>
</g>
<defs>
<clipPath id="clip0_448_3718">
<rect width="24" height="24" fill="white" transform="translate(8 8)"/>
</clipPath>
</defs>
</svg>
