<svg width="29" height="27" viewBox="0 0 29 27" fill="none" xmlns="http://www.w3.org/2000/svg">
<path d="M25.0455 25.6258C25.0455 25.9903 24.9066 26.3398 24.6594 26.5975C24.4122 26.8552 24.0769 27 23.7273 27H5.27273C4.92312 27 4.58784 26.8552 4.34063 26.5975C4.09343 26.3398 3.95455 25.9903 3.95455 25.6258V13.2584H0L13.6129 0.357773C13.8556 0.127571 14.1719 0 14.5 0C14.8281 0 15.1444 0.127571 15.3871 0.357773L29 13.2584H25.0455V25.6258ZM14.5 21.5034L18.9278 16.8876C19.2032 16.6004 19.4217 16.2596 19.5707 15.8845C19.7198 15.5093 19.7965 15.1073 19.7965 14.7013C19.7965 14.2952 19.7198 13.8932 19.5707 13.5181C19.4217 13.1429 19.2032 12.8021 18.9278 12.515C18.6524 12.2279 18.3254 12.0001 17.9656 11.8447C17.6057 11.6894 17.22 11.6094 16.8305 11.6094C16.4411 11.6094 16.0554 11.6894 15.6955 11.8447C15.3357 12.0001 15.0087 12.2279 14.7333 12.515L14.5 12.7582L14.2667 12.515C13.9913 12.2279 13.6643 12.0001 13.3045 11.8447C12.9446 11.6894 12.5589 11.6094 12.1695 11.6094C11.78 11.6094 11.3943 11.6894 11.0344 11.8447C10.6746 12.0001 10.3476 12.2279 10.0722 12.515C9.79682 12.8021 9.57835 13.1429 9.4293 13.5181C9.28024 13.8932 9.20353 14.2952 9.20353 14.7013C9.20353 15.1073 9.28024 15.5093 9.4293 15.8845C9.57835 16.2596 9.79682 16.6004 10.0722 16.8876L14.5 21.5034Z" fill="#070417"/>
</svg>
