<svg width="114" height="114" viewBox="0 0 114 114" fill="none" xmlns="http://www.w3.org/2000/svg">
<g opacity="0.1">
<path fill-rule="evenodd" clip-rule="evenodd" d="M57 114C88.4802 114 114 88.4802 114 57C114 25.5198 88.4802 0 57 0C25.5198 0 0 25.5198 0 57C0 88.4802 25.5198 114 57 114Z" fill="#9933FF"/>
</g>
<path d="M44.2212 64.0625V49.517H49.9599C51.0584 49.517 51.9959 49.7135 52.7724 50.1065C53.5536 50.4948 54.1478 51.0464 54.555 51.7614C54.967 52.4716 55.1729 53.3073 55.1729 54.2685C55.1729 55.2344 54.9646 56.0653 54.5479 56.7614C54.1313 57.4527 53.5276 57.983 52.7369 58.3523C51.9509 58.7216 50.9992 58.9062 49.8817 58.9062H46.0394V56.4347H49.3846C49.9717 56.4347 50.4594 56.3542 50.8477 56.1932C51.2359 56.0322 51.5247 55.7907 51.7141 55.4688C51.9083 55.1468 52.0053 54.7467 52.0053 54.2685C52.0053 53.7855 51.9083 53.3783 51.7141 53.0469C51.5247 52.7154 51.2335 52.4645 50.8406 52.294C50.4523 52.1188 49.9622 52.0312 49.3704 52.0312H47.2965V64.0625H44.2212ZM52.0763 57.4432L55.6914 64.0625H52.2965L48.7596 57.4432H52.0763ZM59.8533 64.0625H56.5579L61.5792 49.517H65.5423L70.5565 64.0625H67.261L63.6175 52.8409H63.5039L59.8533 64.0625ZM59.6474 58.3452H67.4315V60.7457H59.6474V58.3452Z" fill="#9933FF"/>
</svg>
