<svg width="44" height="44" viewBox="0 0 44 44" fill="none" xmlns="http://www.w3.org/2000/svg">
<circle cx="22" cy="22" r="22" fill="white"/>
<path d="M31.8906 18.2501C31.6599 18.2426 31.4308 18.2922 31.2238 18.3944C31.0167 18.4966 30.8381 18.6483 30.7037 18.836C30.6923 18.8524 30.676 18.8647 30.6572 18.8711C30.6383 18.8775 30.6179 18.8778 30.5989 18.8718C30.5798 18.8659 30.5632 18.854 30.5514 18.838C30.5396 18.8219 30.5332 18.8025 30.5331 18.7826V17.0646C30.5331 16.092 29.7672 15.2735 28.795 15.2506C28.5574 15.2446 28.3209 15.2862 28.0996 15.373C27.8783 15.4598 27.6766 15.59 27.5064 15.7559C27.3362 15.9219 27.201 16.1202 27.1086 16.3393C27.0163 16.5583 26.9687 16.7936 26.9688 17.0313V20.8751C26.9688 20.9 26.9589 20.9238 26.9413 20.9414C26.9237 20.959 26.8999 20.9688 26.875 20.9688H17.125C17.1001 20.9688 17.0763 20.959 17.0587 20.9414C17.0411 20.9238 17.0312 20.9 17.0312 20.8751V17.0646C17.0312 16.092 16.2653 15.2735 15.2931 15.2506C15.0556 15.2448 14.8194 15.2866 14.5983 15.3735C14.3772 15.4604 14.1758 15.5907 14.0058 15.7566C13.8358 15.9226 13.7007 16.1208 13.6085 16.3397C13.5163 16.5586 13.4687 16.7938 13.4688 17.0313V18.7835C13.4687 18.8035 13.4623 18.8229 13.4505 18.8389C13.4387 18.855 13.422 18.8668 13.403 18.8728C13.384 18.8787 13.3636 18.8785 13.3447 18.872C13.3259 18.8656 13.3095 18.8533 13.2981 18.837C13.1637 18.6488 12.9848 18.4967 12.7774 18.3943C12.57 18.2919 12.3405 18.2424 12.1094 18.2501C11.3453 18.274 10.75 18.9209 10.75 19.6854V24.3129C10.75 25.0774 11.3472 25.7243 12.1094 25.7482C12.3401 25.7557 12.5692 25.7062 12.7762 25.604C12.9833 25.5018 13.1619 25.35 13.2962 25.1623C13.3074 25.145 13.3239 25.1319 13.3432 25.1249C13.3626 25.1179 13.3836 25.1175 13.4033 25.1236C13.4229 25.1298 13.4399 25.1423 13.4517 25.1591C13.4636 25.1759 13.4695 25.1961 13.4688 25.2167V26.9356C13.4688 27.9063 14.2347 28.7267 15.2069 28.7501C15.4444 28.7559 15.6807 28.714 15.9018 28.6271C16.1229 28.5402 16.3244 28.4099 16.4944 28.2439C16.6644 28.0779 16.7995 27.8796 16.8917 27.6606C16.9839 27.4416 17.0313 27.2064 17.0312 26.9688V23.1251C17.0312 23.1002 17.0411 23.0764 17.0587 23.0588C17.0763 23.0412 17.1001 23.0313 17.125 23.0313H26.875C26.8999 23.0313 26.9237 23.0412 26.9413 23.0588C26.9589 23.0764 26.9688 23.1002 26.9688 23.1251V26.9356C26.9688 27.9082 27.7347 28.7267 28.7069 28.7496C28.9444 28.7554 29.1806 28.7136 29.4017 28.6267C29.6228 28.5398 29.8242 28.4095 29.9942 28.2436C30.1642 28.0776 30.2993 27.8794 30.3915 27.6605C30.4837 27.4416 30.5313 27.2064 30.5312 26.9688V25.2167C30.5313 25.1967 30.5377 25.1773 30.5495 25.1613C30.5613 25.1452 30.578 25.1334 30.597 25.1274C30.616 25.1215 30.6364 25.1217 30.6553 25.1282C30.6741 25.1346 30.6905 25.1469 30.7019 25.1632C30.8363 25.3514 31.0152 25.5035 31.2226 25.6059C31.43 25.7083 31.6595 25.7578 31.8906 25.7501C32.6547 25.7262 33.25 25.0793 33.25 24.3148V19.6863C33.25 18.9218 32.6528 18.2749 31.8906 18.2501Z" fill="url(#paint0_linear_443_3513)"/>
<defs>
<linearGradient id="paint0_linear_443_3513" x1="22" y1="15.25" x2="22" y2="28.7506" gradientUnits="userSpaceOnUse">
<stop stop-color="#67DF61"/>
<stop offset="1" stop-color="#0DDA9F"/>
</linearGradient>
</defs>
</svg>
