<svg width="270" height="270" viewBox="0 0 270 270" fill="none" xmlns="http://www.w3.org/2000/svg">
<path d="M270 135C270 209.558 209.558 270 135 270C60.4416 270 0 209.558 0 135C0 60.4416 60.4416 0 135 0C209.558 0 270 60.4416 270 135ZM21.6 135C21.6 197.629 72.3709 248.4 135 248.4C197.629 248.4 248.4 197.629 248.4 135C248.4 72.3709 197.629 21.6 135 21.6C72.3709 21.6 21.6 72.3709 21.6 135Z" fill="#1B143F"/>
<path d="M135 10.8C135 4.83532 139.843 -0.044928 145.789 0.431756C164.068 1.89724 181.897 7.0754 198.171 15.6916C217.632 25.9961 234.278 40.9052 246.656 59.1187C259.034 77.3323 266.768 98.2973 269.185 120.186C271.601 142.074 268.626 164.222 260.52 184.697C252.413 205.172 239.421 223.353 222.675 237.655C205.93 251.957 185.94 261.945 164.449 266.749C142.958 271.553 120.618 271.026 99.3771 265.215C81.6162 260.356 65.0747 251.926 50.7463 240.481C46.0859 236.759 45.8962 229.886 49.9793 225.538C54.0624 221.19 60.8686 221.021 65.5853 224.673C77.3036 233.744 90.7157 240.452 105.077 244.381C122.919 249.262 141.685 249.704 159.737 245.669C177.79 241.634 194.581 233.244 208.647 221.23C222.713 209.216 233.627 193.944 240.437 176.745C247.246 159.546 249.745 140.942 247.715 122.556C245.685 104.17 239.188 86.5591 228.791 71.2597C218.393 55.9603 204.411 43.4368 188.063 34.781C174.905 27.8141 160.536 23.5231 145.784 22.1139C139.846 21.5467 135 16.7647 135 10.8Z" fill="url(#paint0_radial_380_4371)"/>
<defs>
<radialGradient id="paint0_radial_380_4371" cx="0" cy="0" r="1" gradientUnits="userSpaceOnUse" gradientTransform="translate(37.125 -114.75) rotate(42.7688) scale(367.798)">
<stop stop-color="#96DF61"/>
<stop offset="0.484375" stop-color="#0DDA9F"/>
<stop offset="1" stop-color="#BBF246"/>
</radialGradient>
</defs>
</svg>
