<svg width="36" height="36" viewBox="0 0 36 36" fill="none" xmlns="http://www.w3.org/2000/svg">
<rect width="36" height="36" rx="8" fill="black" fill-opacity="0.5"/>
<mask id="mask0_1_1388" style="mask-type:alpha" maskUnits="userSpaceOnUse" x="10" y="9" width="15" height="19">
<path fill-rule="evenodd" clip-rule="evenodd" d="M10.5 9.66669H24.699V27.0389H10.5V9.66669Z" fill="white"/>
</mask>
<g mask="url(#mask0_1_1388)">
<path fill-rule="evenodd" clip-rule="evenodd" d="M14.9515 10.9167C12.8273 10.9167 11.7498 11.735 11.7498 13.3509V25.6209C11.7498 25.6992 11.7948 25.7417 11.8323 25.7634C11.8698 25.7867 11.929 25.8034 11.9973 25.765L17.3157 22.7817C17.5057 22.6759 17.7382 22.675 17.929 22.7825L23.2015 25.7609C23.2707 25.8009 23.3298 25.7825 23.3673 25.76C23.4048 25.7375 23.449 25.695 23.449 25.6167V13.5034C23.449 12.8642 23.449 10.9167 20.2507 10.9167H14.9515ZM11.9157 27.0392C11.6698 27.0392 11.424 26.9734 11.2007 26.8417C10.7615 26.5859 10.4998 26.1284 10.4998 25.6209V13.3509C10.4998 11.0092 12.1223 9.66669 14.9515 9.66669H20.2507C23.0773 9.66669 24.699 11.0659 24.699 13.5034V25.6167C24.699 26.125 24.4373 26.5825 23.9973 26.8384C23.559 27.095 23.0307 27.1 22.5873 26.85L17.6207 24.0442L12.6082 26.8559C12.3915 26.9775 12.154 27.0392 11.9157 27.0392V27.0392Z" fill="white"/>
</g>
</svg>
