<svg width="26" height="28" viewBox="0 0 26 28" fill="none" xmlns="http://www.w3.org/2000/svg">
<path d="M1.1875 25.375V25.875H1.6875H24.4688C24.5479 25.875 24.6318 25.9085 24.6994 25.9811C24.7682 26.055 24.8125 26.1624 24.8125 26.2812C24.8125 26.4001 24.7682 26.5075 24.6994 26.5814C24.6318 26.654 24.5479 26.6875 24.4688 26.6875H1.6875C1.38455 26.6875 1.08611 26.5586 0.860204 26.3159C0.633171 26.0721 0.5 25.7342 0.5 25.375V0.90625C0.5 0.787434 0.544276 0.680039 0.613076 0.606144C0.680752 0.533454 0.764579 0.5 0.84375 0.5C0.922921 0.5 1.00675 0.533454 1.07442 0.606144C1.14322 0.680039 1.1875 0.787434 1.1875 0.90625V25.375Z" stroke="white"/>
<path d="M7.00781 22.5312H4.89844C4.53955 22.5312 4.18746 22.3784 3.92199 22.0933C3.65539 21.807 3.5 21.4114 3.5 20.9922V12.3828C3.5 11.9636 3.65539 11.568 3.92199 11.2817C4.18746 10.9966 4.53955 10.8438 4.89844 10.8438H7.00781C7.3667 10.8438 7.71879 10.9966 7.98426 11.2817C8.25086 11.568 8.40625 11.9636 8.40625 12.3828V20.9922C8.40625 21.4114 8.25086 21.807 7.98426 22.0933C7.7188 22.3784 7.3667 22.5312 7.00781 22.5312ZM14.6016 22.5312H12.4922C12.1333 22.5312 11.7812 22.3784 11.5157 22.0933C11.2491 21.807 11.0938 21.4114 11.0938 20.9922V9.66406C11.0938 9.24481 11.2491 8.84928 11.5157 8.56294C11.7812 8.2778 12.1333 8.125 12.4922 8.125H14.6016C14.9605 8.125 15.3125 8.2778 15.578 8.56294C15.8446 8.84928 16 9.24481 16 9.66406V20.9922C16 21.4114 15.8446 21.807 15.578 22.0933C15.3125 22.3784 14.9605 22.5312 14.6016 22.5312ZM22.1763 22.5312H20.067C19.7081 22.5312 19.356 22.3784 19.0905 22.0933C18.8239 21.807 18.6685 21.4114 18.6685 20.9922V6.03906C18.6685 5.61981 18.8239 5.22428 19.0905 4.93794C19.356 4.6528 19.7081 4.5 20.067 4.5H22.1763C22.5352 4.5 22.8873 4.6528 23.1528 4.93794C23.4194 5.22428 23.5748 5.61981 23.5748 6.03906V20.9922C23.5748 21.4114 23.4194 21.807 23.1528 22.0933C22.8873 22.3784 22.5352 22.5312 22.1763 22.5312Z" stroke="white"/>
</svg>
