<svg width="24" height="22" viewBox="0 0 24 22" fill="none" xmlns="http://www.w3.org/2000/svg">
<path d="M11.0432 21.0208L11.0442 21.0215C11.2617 21.17 11.5188 21.2496 11.7821 21.25C12.0453 21.2497 12.3023 21.1702 12.5198 21.022L12.5206 21.0214C16.9353 18.0245 18.8264 15.9844 19.8568 14.7289C22.0596 12.0435 23.0924 9.31955 23.0632 6.38507C23.0301 3.12937 20.4197 0.5 17.2715 0.5C14.9795 0.5 13.3765 1.78732 12.4178 2.9035L12.416 2.90558C12.3371 2.99635 12.2397 3.06914 12.1303 3.11902C12.0209 3.1689 11.9021 3.19471 11.7819 3.19471C11.6617 3.19471 11.5428 3.1689 11.4334 3.11902C11.324 3.06914 11.2266 2.99635 11.1478 2.90558L11.1462 2.90369C10.1872 1.78832 8.58416 0.5 6.29227 0.5C3.14408 0.5 0.533669 3.12935 0.500604 6.38442L11.0432 21.0208ZM11.0432 21.0208C6.6284 18.0239 4.73732 15.9838 3.70687 14.7283M11.0432 21.0208L3.70687 14.7283M3.70687 14.7283C1.50305 12.0424 0.471393 9.31849 0.500603 6.3845L3.70687 14.7283Z" stroke="white"/>
</svg>
